{"title":"X-Men.Days.of.Future.Past.2014.720.W/SUBS.X264.AC3","uid":11000934,"size":2883520042,"categoryP":"video","categoryS":"hd___movies","magnet":"?xt=urn:btih:ed6267be36f9682764119d656f59edf5eefb50f8&amp;dn=X-Men.Days.of.Future.Past.2014.720.W%2FSUBS.X264.AC3&amp;tr=udp%3A%2F%2Ftracker.openbittorrent.com%3A80&amp;tr=udp%3A%2F%2Fopen.demonii.com%3A1337&amp;tr=udp%3A%2F%2Ftracker.coppersurfer.tk%3A6969&amp;tr=udp%3A%2F%2Fexodus.desync.com%3A6969","seeders":3,"leechers":0,"uploader":"JUGGALOTUS420","files":-1,"time":1410142920,"description":"NOTE: SUBS FOR NON-ENGLISH PARTS\n\n\n\n\n\n\nIMDB:http://www.imdb.com/title/tt1877832/\n\nThe X-Men send Wolverine to the past in a desperate effort to change history and prevent an event that results in doom for both humans and mutants\n\nGeneral\nUnique ID: 212871550036176999168540225890710032726 (0xA02591BA84755EE4942ED31E463D9156)\nComplete name: C:UsersadminDocumentsX-Men.Days.of.Future.Past.2014.720.WEBRiP.X264.AC3.DrunkinRGX-Men.Days.of.Future.Past.2014.720.WEBRiP.X264.AC3.DrunkinRG.mkv\nFormat: Matroska\nFormat version: Version 2\nFile size: 2.65 GiB\nDuration: 2h 11mn\nOverall bit rate: 2 884 Kbps\nEncoded date: UTC 2014-09-07 15:11:56\nWriting application: mkvmerge v5.7.0 ('The Whirlwind') built on Jul 8 2012 20:08:51\nWriting library: libebml v1.2.3 + libmatroska v1.3.0\n\nVideo\nID: 1\nFormat: AVC\nFormat/Info: Advanced Video Codec\nFormat profile: &lt;a class=&quot;__cf_email__&quot; href=&quot;/cdn-cgi/l/email-protection&quot; data-cfemail=&quot;0a42636d624a4639243b&quot;&gt;[email&amp;#160;protected]&lt;/a&gt;&lt;script cf-hash='f9e31' type=&quot;text/javascript&quot;&gt;\n/* &lt;![CDATA[ */!function(){try{var t=&quot;currentScript&quot;in document?document.currentScript:function(){for(var t=document.getElementsByTagName(&quot;script&quot;),e=t.length;e--;)if(t[e].getAttribute(&quot;cf-hash&quot;))return t[e]}();if(t&amp;&amp;t.previousSibling){var e,r,n,i,c=t.previousSibling,a=c.getAttribute(&quot;data-cfemail&quot;);if(a){for(e=&quot;&quot;,r=parseInt(a.substr(0,2),16),n=2;a.length-n;n+=2)i=parseInt(a.substr(n,2),16)^r,e+=String.fromCharCode(i);e=document.createTextNode(e),c.parentNode.replaceChild(e,c)}}}catch(u){}}();/* ]]&gt; */&lt;/script&gt;\nFormat settings, CABAC: Yes\nFormat settings, ReFrames: 6 frames\nMuxing mode: Header stripping\nCodec ID: V_MPEG4/ISO/AVC\nDuration: 2h 11mn\nBit rate: 2 499 Kbps\nWidth: 1 280 pixels\nHeight: 528 pixels\nDisplay aspect ratio: 2.40:1\nFrame rate mode: Constant\nFrame rate: 23.976 fps\nColor space: YUV\nChroma subsampling: 4:2:0\nBit depth: 8 bits\nScan type: Progressive\nBits/(Pixel*Frame): 0.154\nStream size: 2.25 GiB (85%)\nWriting library: x264 core 142 r2431 ac76440\nEncoding settings: cabac=1 / ref=6 / deblock=1:-1:-1 / analyse=0x3:0x113 / me=umh / subme=10 / psy=1 / psy_rd=1.00:0.00 / mixed_ref=1 / me_range=64 / chroma_me=1 / trellis=2 / 8x8dct=1 / cqm=0 / deadzone=21,11 / fast_pskip=0 / chroma_qp_offset=-2 / threads=6 / lookahead_threads=1 / sliced_threads=0 / nr=0 / decimate=0 / interlaced=0 / bluray_compat=0 / constrained_intra=0 / bframes=6 / b_pyramid=0 / b_adapt=2 / b_bias=0 / direct=3 / weightb=1 / open_gop=0 / weightp=2 / keyint=240 / keyint_min=23 / scenecut=40 / intra_refresh=0 / rc_lookahead=40 / rc=2pass / mbtree=1 / bitrate=2499 / ratetol=1.0 / qcomp=0.60 / qpmin=10 / qpmax=51 / qpstep=4 / cplxblur=20.0 / qblur=0.5 / vbv_maxrate=16800 / vbv_bufsize=16800 / nal_hrd=none / filler=0 / ip_ratio=1.40 / aq=1:1.00\nLanguage: English\nDefault: Yes\nForced: No\n\nAudio\nID: 2\nFormat: AC-3\nFormat/Info: Audio Coding 3\nMode extension: CM (complete main)\nFormat settings, Endianness: Big\nMuxing mode: Header stripping\nCodec ID: A_AC3\nDuration: 2h 11mn\nBit rate mode: Constant\nBit rate: 384 Kbps\nChannel(s): 6 channels\nChannel positions: Front: L C R, Side: L R, LFE\nSampling rate: 48.0 KHz\nBit depth: 16 bits\nCompression mode: Lossy\nStream size: 361 MiB (13%)\nDefault: Yes\nForced: No\n\nNOTE:\nsubs for non english parts\n","torrent":{"xt":"urn:btih:ed6267be36f9682764119d656f59edf5eefb50f8","amp;dn":"X-Men.Days.of.Future.Past.2014.720.W%2FSUBS.X264.AC3","amp;tr":["udp%3A%2F%2Ftracker.openbittorrent.com%3A80","udp%3A%2F%2Fopen.demonii.com%3A1337","udp%3A%2F%2Ftracker.coppersurfer.tk%3A6969","udp%3A%2F%2Fexodus.desync.com%3A6969"],"infoHash":"ed6267be36f9682764119d656f59edf5eefb50f8","infoHashBuffer":{"type":"Buffer","data":[237,98,103,190,54,249,104,39,100,17,157,101,111,89,237,245,238,251,80,248]},"announce":[],"urlList":[]}}